<svg data-v-fde0c5aa="" xmlns="http://www.w3.org/2000/svg" viewBox="0 0 300 300" class="iconLeft"><!----><defs data-v-fde0c5aa=""><!----></defs><rect data-v-fde0c5aa="" fill="transparent" x="0" y="0" width="300px" height="300px" class="logo-background-square"></rect><defs data-v-fde0c5aa=""><!----></defs><g data-v-fde0c5aa="" id="459fb98c-5e5b-4e7b-ab84-51b9464d0efe" fill="#000000" transform="matrix(2.485143291619864,0,0,2.485143291619864,100.62777012627446,125.63317045227033)"><path d="M4.10 5.94C2.06 5.94 0.38 7.36 0.38 9.91C0.38 12.49 1.90 13.78 3.93 13.78C5.80 13.78 7.17 12.84 7.49 11.00L5.56 11.00C5.36 11.94 4.80 12.42 4.05 12.42C3.08 12.42 2.38 11.63 2.38 9.79C2.38 8.09 3.08 7.29 4.06 7.29C4.86 7.29 5.42 7.74 5.60 8.82L7.50 8.82C7.36 7.17 6.12 5.94 4.10 5.94ZM12.10 5.94C9.62 5.94 8.23 7.59 8.23 9.86C8.23 12.11 9.62 13.78 12.10 13.78C14.57 13.78 15.96 12.11 15.96 9.86C15.96 7.59 14.57 5.94 12.10 5.94ZM12.10 12.42C10.93 12.42 10.23 11.45 10.23 9.86C10.23 8.25 10.93 7.29 12.10 7.29C13.26 7.29 13.96 8.25 13.96 9.86C13.96 11.45 13.26 12.42 12.10 12.42ZM24.46 3.29L22.53 3.29L22.53 7.13L22.04 6.36C21.66 6.09 20.90 5.94 20.29 5.94C18.37 5.94 16.72 7.29 16.72 10.00C16.72 12.19 17.95 13.78 20.03 13.78C20.79 13.78 21.55 13.58 21.97 13.26L22.53 12.43L22.53 13.58L24.46 13.58ZM20.59 12.42C19.45 12.42 18.72 11.40 18.72 9.87C18.72 8.15 19.54 7.29 20.66 7.29C21.56 7.29 22.53 7.90 22.53 9.58L22.53 9.94C22.53 11.76 21.66 12.42 20.59 12.42ZM33.01 9.70C33.01 7.67 31.81 5.94 29.53 5.94C27.24 5.94 25.75 7.60 25.75 9.88C25.75 12.50 27.33 13.78 29.37 13.78C31.12 13.78 32.52 12.89 32.90 11.16L30.97 11.16C30.84 11.96 30.24 12.42 29.41 12.42C28.52 12.42 27.82 11.93 27.69 10.36L32.98 10.36C33.01 10.11 33.01 9.88 33.01 9.70ZM29.44 7.29C30.37 7.29 30.90 7.92 31.02 9.10L27.75 9.10C27.92 7.87 28.55 7.29 29.44 7.29ZM44.30 6.13L42.36 6.13L42.36 7.13L41.87 6.36C41.50 6.09 40.74 5.94 40.12 5.94C38.21 5.94 36.55 7.29 36.55 10.00C36.55 12.19 37.79 13.78 39.87 13.78C40.63 13.78 41.38 13.58 41.80 13.26L42.36 12.43L42.36 16.32L44.30 16.32ZM40.43 12.42C39.28 12.42 38.56 11.40 38.56 9.87C38.56 8.15 39.38 7.29 40.50 7.29C41.40 7.29 42.36 7.90 42.36 9.58L42.36 9.94C42.36 11.76 41.50 12.42 40.43 12.42ZM52.96 6.13L51.03 6.13L51.03 9.93C51.03 11.61 50.36 12.40 49.39 12.40C48.50 12.40 48.05 11.91 47.95 11.14C47.91 10.77 47.89 10.36 47.89 10.12L47.89 6.13L45.96 6.13L45.96 10.53C45.96 11.13 45.98 11.51 46.03 11.89C46.20 12.91 47.12 13.78 48.66 13.78C49.38 13.78 49.91 13.64 50.46 13.27L51.03 12.32L51.03 13.58L52.96 13.58ZM55.71 3.36C55.08 3.36 54.64 3.78 54.64 4.38C54.64 5.00 55.08 5.40 55.71 5.40C56.34 5.40 56.77 5.00 56.77 4.38C56.77 3.78 56.34 3.36 55.71 3.36ZM56.67 13.58L56.67 6.13L54.74 6.13L54.74 13.58ZM64.13 12.29L60.07 12.29L64.08 7.46L64.08 6.19L58.23 6.19L58.23 7.48L62.01 7.48L57.97 12.36L57.97 13.58L64.13 13.58Z"></path></g><defs data-v-fde0c5aa=""><linearGradient data-v-fde0c5aa="" gradientTransform="rotate(25)" id="53378b9b-4dea-455e-a535-6fdd96d5ca7e" x1="0%" y1="0%" x2="100%" y2="0%"><stop data-v-fde0c5aa="" offset="0%" stop-color="#D0E90D" stop-opacity="1"></stop><stop data-v-fde0c5aa="" offset="100%" stop-color="#1536F1" stop-opacity="1"></stop></linearGradient></defs><g data-v-fde0c5aa="" id="d4626df0-cb3c-48c5-a3ba-12a3b852f4c4" stroke="none" fill="url(#53378b9b-4dea-455e-a535-6fdd96d5ca7e)" transform="matrix(1.5178788949782176,0,0,1.5178788949782176,40,125.71393768034852)"><path d="M16 32c8.837 0 16-7.163 16-16S24.837 0 16 0 0 7.163 0 16s7.163 16 16 16zM14.817 6.421h2v8.886h8.887v2H14.817V6.421zm-5.959.437h2v14.283h14.283v2H8.858V6.858z"></path></g><!----></svg>